<svg width="136" height="24" viewBox="0 0 136 24" fill="none" xmlns="http://www.w3.org/2000/svg">
<g clip-path="url(#clip0_6_41)">
<path d="M1.52499 1.52501C1.85 1.19997 2.23586 0.942125 2.66052 0.766212C3.08518 0.590298 3.54034 0.499756 3.99999 0.499756C4.45965 0.499756 4.91481 0.590298 5.33947 0.766212C5.76413 0.942125 6.14998 1.19997 6.47499 1.52501L20 15.05L33.525 1.52501C33.85 1.19997 34.2359 0.942125 34.6605 0.766212C35.0852 0.590298 35.5403 0.499756 36 0.499756C36.4596 0.499756 36.9148 0.590298 37.3395 0.766212C37.7641 0.942125 38.15 1.19997 38.475 1.52501L52 15.05L65.525 1.52501C65.85 1.19997 66.2359 0.942125 66.6605 0.766212C67.0852 0.590298 67.5403 0.499756 68 0.499756C68.4596 0.499756 68.9148 0.590298 69.3395 0.766212C69.7641 0.942125 70.15 1.19997 70.475 1.52501L84 15.05L97.525 1.52501C97.85 1.19997 98.2359 0.942125 98.6605 0.766212C99.0852 0.590298 99.5403 0.499756 100 0.499756C100.46 0.499756 100.915 0.590298 101.339 0.766212C101.764 0.942125 102.15 1.19997 102.475 1.52501L116 15.05L129.525 1.52501C130.181 0.868598 131.072 0.49983 132 0.49983C132.928 0.49983 133.819 0.868598 134.475 1.52501C135.131 2.18142 135.5 3.0717 135.5 4.00001C135.5 4.92831 135.131 5.8186 134.475 6.47501L118.475 22.475C118.15 22.8001 117.764 23.0579 117.339 23.2338C116.915 23.4097 116.46 23.5003 116 23.5003C115.54 23.5003 115.085 23.4097 114.661 23.2338C114.236 23.0579 113.85 22.8001 113.525 22.475L100 8.95001L86.475 22.475C86.15 22.8001 85.7641 23.0579 85.3395 23.2338C84.9148 23.4097 84.4596 23.5003 84 23.5003C83.5403 23.5003 83.0852 23.4097 82.6605 23.2338C82.2359 23.0579 81.85 22.8001 81.525 22.475L68 8.95001L54.475 22.475C54.15 22.8001 53.7641 23.0579 53.3395 23.2338C52.9148 23.4097 52.4596 23.5003 52 23.5003C51.5403 23.5003 51.0852 23.4097 50.6605 23.2338C50.2359 23.0579 49.85 22.8001 49.525 22.475L36 8.95001L22.475 22.475C22.15 22.8001 21.7641 23.0579 21.3395 23.2338C20.9148 23.4097 20.4596 23.5003 20 23.5003C19.5403 23.5003 19.0852 23.4097 18.6605 23.2338C18.2359 23.0579 17.85 22.8001 17.525 22.475L1.52499 6.47501C1.19995 6.15 0.94211 5.76415 0.766196 5.33948C0.590283 4.91482 0.499741 4.45966 0.499741 4.00001C0.499741 3.54035 0.590283 3.0852 0.766196 2.66053C0.94211 2.23587 1.19995 1.85002 1.52499 1.52501Z" fill="#5B6D83"/>
</g>
<defs>
<clipPath id="clip0_6_41">
<rect width="136" height="24" fill="white"/>
</clipPath>
</defs>
</svg>
